<svg preserveAspectRatio="none" width="100%" height="100%" overflow="visible" style="display: block;" viewBox="0 0 42 47.9062" fill="none" xmlns="http://www.w3.org/2000/svg">
<g id="Rectangle [Vectorized]">
<path id="Vector" d="M7.77246 18.5514C9.44545 18.4521 9.54224 20.2642 9.85134 21.5261C10.9658 21.162 13.1855 20.7144 14.3549 20.4832C17.2433 19.9317 20.1699 19.6028 23.1087 19.4994C23.7784 19.4813 24.4637 19.4419 25.1288 19.5255C26.3026 19.6732 27.3783 20.6431 27.5852 21.8159C27.6886 22.402 27.688 23.0443 27.7184 23.643C27.7792 24.8426 27.8138 26.0454 27.8186 27.2468C27.834 28.366 27.9293 29.5219 27.9554 30.6441C27.9743 31.4562 27.9789 32.2677 27.9982 33.0802C28.0277 34.0325 28.0628 34.9846 28.1037 35.9365C28.1249 36.4871 28.1707 37.1371 28.1224 37.6782C28.0471 38.5227 27.4202 39.4922 26.6284 39.821C26.138 40.0246 25.573 40.0644 25.0545 40.161C23.9747 40.3622 22.8902 40.5177 21.8113 40.7216C21.3063 40.8663 20.2106 41.0102 19.671 41.1042C18.1438 41.3827 16.6143 41.6489 15.0828 41.9032L9.64007 42.8646C8.54339 43.0529 7.0099 43.5328 5.97491 43.075C4.40717 42.381 4.39811 40.78 4.19594 39.3111L3.68205 35.5547L2.84759 29.6596C2.67751 28.4981 2.45764 27.3127 2.36716 26.1448C2.29758 25.2468 2.7209 24.3399 3.40372 23.7679C3.81558 23.423 4.28236 23.2783 4.78197 23.0974C4.62513 22.7092 4.60433 22.3606 4.51988 22.0457C4.00479 20.1256 4.2427 19.3226 6.34015 18.9565C6.64416 18.9034 7.35742 18.6361 7.77246 18.5514ZM7.35197 42.5488C8.52965 42.4028 9.94104 42.1103 11.1265 41.9048L18.8279 40.5485L23.6665 39.7096C26.4333 39.2231 27.5815 39.4994 27.4057 36.1907C27.3316 34.7968 27.3315 33.2814 27.2508 31.8738C27.1913 29.4406 27.1836 26.935 27.0646 24.5109C26.9997 23.1888 27.2003 21.4722 26.0741 20.6505C25.2655 20.0605 23.9905 20.1465 23.0521 20.1977C17.3207 20.4252 11.6523 21.4814 6.22355 23.3334C5.48174 23.585 4.12588 23.9683 3.61376 24.4968C2.63357 25.5083 3.21395 27.3084 3.37904 28.5252L4.19865 34.4123L4.75695 38.3082C4.89247 39.3199 5.00579 40.4193 5.25213 41.4073C5.42735 42.1099 6.43281 42.6357 7.13496 42.5779C7.20768 42.5713 7.28007 42.5619 7.35197 42.5488ZM5.3947 22.9081C5.70158 22.7629 5.81101 22.7263 6.14381 22.6428C6.76696 22.4126 7.43654 22.2125 8.07183 22.0118C8.38368 21.9133 8.95703 21.7153 9.25075 21.6682C8.85581 20.8841 8.89604 19.1238 7.8668 19.2877C7.42498 19.3823 6.98484 19.4912 6.54187 19.6009C5.6926 19.8113 4.77225 19.8917 5.02843 21.0538C5.14873 21.5994 5.22662 22.2163 5.35799 22.7631C5.36952 22.8116 5.38174 22.8599 5.3947 22.9081Z" fill="var(--fill-0, #7F7F7F)"/>
<path id="Vector_2" d="M17.203 25.6835C20.6545 25.4729 23.6242 28.098 23.8386 31.5493C24.053 35.0006 21.4311 37.9731 17.9801 38.1913C14.5237 38.4098 11.5456 35.783 11.3308 32.3264C11.1161 28.8698 13.7462 25.8945 17.203 25.6835ZM18.0595 37.4787C21.1319 37.2143 23.4038 34.5024 23.1258 31.4312C22.8478 28.36 20.126 26.1001 17.0561 26.3916C14.0052 26.6812 11.7623 29.3825 12.0385 32.4347C12.3148 35.4868 15.0062 37.7415 18.0595 37.4787Z" fill="var(--fill-0, #7F7F7F)"/>
<path id="Vector_3" d="M17.0846 27.628C19.467 27.3527 21.6208 29.0626 21.8929 31.4454C22.1651 33.8281 20.4524 35.9797 18.0692 36.2487C15.6905 36.5173 13.5439 34.8084 13.2722 32.43C13.0005 30.0517 14.7066 27.9027 17.0846 27.628ZM17.9775 35.5586C19.9676 35.3413 21.4096 33.5589 21.2064 31.5673C21.0033 29.5757 19.2312 28.1211 17.2381 28.3101C15.225 28.5011 13.7526 30.295 13.9578 32.3067C14.163 34.3183 15.9673 35.778 17.9775 35.5586Z" fill="var(--fill-0, #7F7F7F)"/>
<path id="Vector_4" d="M17.6161 29.3281C18.3962 29.3106 19.1548 29.6819 19.614 30.3125C19.8971 30.7015 20.3282 31.5992 19.8455 31.9605C19.1202 31.9479 19.4769 31.2103 18.9716 30.5991C18.4339 29.9487 17.6514 30.2013 17.37 29.8556C17.3137 29.6075 17.4128 29.4485 17.6161 29.3281Z" fill="var(--fill-0, #7F7F7F)"/>
<path id="Vector_5" d="M10.0474 24.5368C10.4312 24.6271 10.5042 24.6599 10.7928 24.9216C10.8388 25.049 10.8998 25.1953 10.9305 25.3266C11.5802 28.0996 11.4867 28.054 8.90097 28.6571L6.4897 29.237C6.17704 29.3179 5.83591 29.0511 5.65507 28.8244C5.5262 28.0789 5.2418 27.3202 5.24454 26.5624C5.24549 26.3024 5.31993 26.1714 5.47308 25.9676C5.75461 25.8191 6.57673 25.5657 6.90535 25.4615C7.94464 25.1266 8.99231 24.8182 10.0474 24.5368ZM6.49507 28.5386C6.99604 28.4067 10.4499 27.5895 10.5181 27.4728C10.6339 27.2747 10.3454 25.6748 10.2227 25.4042C10.2041 25.363 10.1728 25.3271 10.1418 25.2947C10.0651 25.2759 10.0316 25.2641 9.95322 25.264C9.36842 25.4924 6.13852 26.2868 5.94292 26.6276C5.93098 26.8003 6.25558 28.4149 6.32166 28.5028C6.42678 28.5488 6.38847 28.5477 6.49507 28.5386Z" fill="var(--fill-0, #7F7F7F)"/>
<path id="Vector_6" d="M30.8161 11.4762C31.1584 11.6096 31.2236 11.9662 31.3897 12.3519C31.8682 13.4631 32.8827 14.7325 34.1597 14.8906C34.5395 14.9376 34.9113 14.8293 35.2953 14.9747C35.5975 15.304 34.9545 15.6282 34.7805 15.8094C33.3512 17.2981 32.9166 19.4479 32.8095 21.442C32.8053 21.5209 32.7319 21.6176 32.6833 21.6726C32.5425 21.6733 32.2773 21.6989 32.2348 21.5279C31.8497 19.9779 31.0976 17.9923 29.2073 17.9342C28.9672 17.9189 28.3037 18.11 28.1772 17.8012C28.0453 17.4793 28.9171 16.8326 29.1227 16.5881C30.0604 15.4724 30.4149 14.0694 30.4899 12.6417C30.5176 12.1154 30.2821 11.7398 30.8161 11.4762ZM29.457 17.25C30.4469 17.3526 31.0342 17.7974 31.6959 18.5361C31.8581 18.7172 32.1016 19.2321 32.2538 19.4668C32.2764 19.4684 32.3243 19.475 32.3427 19.4695C32.5394 18.1807 33.1926 16.5559 34.0702 15.5756C32.9262 15.4195 32.0414 14.6513 31.403 13.7438C31.3039 13.603 31.256 13.4948 31.1092 13.4258C30.9565 14.6808 30.4104 16.374 29.457 17.25Z" fill="var(--fill-0, #7F7F7F)"/>
</g>
</svg>
