<svg preserveAspectRatio="none" width="100%" height="100%" overflow="visible" style="display: block;" viewBox="0 0 74 74" fill="none" xmlns="http://www.w3.org/2000/svg">
<g id="Rectangle [Vectorized]">
<path id="Vector" d="M15.5071 13.5586C16.6635 13.4982 18.091 13.5262 19.2614 13.5255L25.6647 13.5259L44.9721 13.5271L54.6099 13.5251C55.8837 13.5251 57.3482 13.4939 58.6258 13.5755C58.7909 13.586 58.9648 13.7211 59.0622 13.8641C59.2631 14.7949 59.2003 16.4957 59.1994 17.5147L59.1964 22.7429L59.1965 43.4132L59.191 54.5432C59.192 55.6927 59.2105 56.8439 59.2048 57.9927C59.2016 58.6264 59.2954 59.4171 58.6951 59.7816C56.5204 59.8598 53.8861 59.7938 51.6835 59.7934L38.2225 59.7921L23.7247 59.7954C21.438 59.7958 19.1497 59.7976 16.8628 59.7948C16.4949 59.7944 15.4545 59.8293 15.1844 59.5978C15.0207 59.2825 14.9617 58.5274 14.961 58.1584C14.9544 54.6238 14.9642 51.0819 14.9646 47.5479L14.9623 26.4943L14.9622 18.2867C14.9578 16.9958 14.8945 15.4401 15.0197 14.1506C15.046 13.8792 15.2899 13.697 15.5071 13.5586ZM16.2885 58.5113C18.1644 58.3966 21.0405 58.503 23.0185 58.5041L36.5506 58.5088L50.7185 58.5049C52.819 58.5034 55.8757 58.4018 57.9071 58.5143C57.7982 56.2179 57.8791 53.2626 57.8799 50.9249L57.8775 37.0033L57.8811 22.8699C57.8795 20.3368 57.7948 17.3122 57.9122 14.8426C54.7495 14.9507 51.0987 14.8551 47.8854 14.8547L28.5173 14.8545L20.2956 14.8605C19.5358 14.863 16.9366 14.9358 16.3071 14.7959C16.2309 18.1732 16.2984 21.8149 16.2997 25.2157L16.2978 46.8054C16.2982 50.6487 16.3597 54.6842 16.2885 58.5113Z" fill="var(--fill-0, #7F7F7F)"/>
<path id="Vector_2" d="M20.6881 18.4693L43.0754 18.4908L49.455 18.4814C50.2342 18.4777 53.3812 18.352 53.9388 18.6581C54.1121 18.8979 54.1128 19.2892 54.1156 19.5973C54.1363 21.8333 54.1268 24.0773 54.1265 26.3132L54.1248 39.2641L54.1308 46.0064C54.1326 47.0956 54.1642 48.2779 54.101 49.364C54.0871 49.6027 53.9317 49.7185 53.7495 49.8538C51.4671 49.8973 49.0316 49.8505 46.7318 49.8507L31.4058 49.8437L24.4959 49.8478C23.3031 49.8528 21.3282 49.9313 20.223 49.7605C20.1434 49.3592 20.1077 48.9424 20.0958 48.5337C20.0214 45.9959 20.0353 19.0913 20.1516 18.829C20.2518 18.6032 20.4719 18.5453 20.6881 18.4693ZM21.1131 48.7682C25.0067 48.7391 28.9005 48.7324 32.7942 48.7482L52.8314 48.74L52.9607 48.7232C53.1428 48.418 52.9638 22.3977 53.0315 19.5582C51.3047 19.6503 49.0273 19.5826 47.2567 19.5822L36.4221 19.5796L26.6323 19.5822C24.966 19.5828 22.8065 19.6484 21.1942 19.5455L21.1845 39.8034L21.1856 45.5408C21.1854 46.3754 21.2237 48.0078 21.1131 48.7682Z" fill="var(--fill-0, #7F7F7F)"/>
<path id="Vector_3" d="M40.5711 29.8829C40.6041 29.8775 40.6373 29.8725 40.6706 29.8679C41.1579 29.8016 41.6871 29.9217 42.0573 30.2294C42.9898 31.0048 43.0952 32.4159 42.8755 33.4676C42.3399 36.031 40.9792 38.0606 39.3381 40.0315C38.8393 40.6307 38.2729 41.1187 37.7978 41.7022C36.0575 40.5304 35.1273 39.9974 33.6633 38.465C33.0507 37.8908 32.8172 37.5852 32.2525 36.8576C31.0397 35.374 29.6493 31.8923 32.2379 30.9874C33.9814 30.3779 36.1636 32.3773 37.0036 33.706C37.768 31.8735 38.6115 30.5704 40.5711 29.8829Z" fill="var(--fill-0, #7F7F7F)"/>
</g>
</svg>
